<svg xmlns="http://www.w3.org/2000/svg" style="display:none">

    <symbol id="icon-instagram" viewBox="0 0 32 32">
<g clip-path="url(#clip0_1021712_24)">
<path d="M15.9843 4.70404C15.9468 3.8539 15.8093 3.26944 15.6124 2.76299C15.4092 2.22541 15.0967 1.74412 14.6872 1.34401C14.2871 0.937683 13.8026 0.621948 13.2713 0.421957C12.7619 0.22502 12.1805 0.0875415 11.3303 0.0500586C10.4738 0.00940124 10.2019 0 8.02963 0C5.85733 0 5.58543 0.00940124 4.73212 0.0468842C3.88197 0.0843671 3.29751 0.221967 2.79119 0.418783C2.25348 0.621948 1.77219 0.934509 1.37209 1.34401C0.965758 1.74412 0.650145 2.22858 0.450033 2.75994C0.253096 3.26944 0.115618 3.85073 0.0781347 4.70087C0.0374774 5.55736 0.0280762 5.82926 0.0280762 8.00156C0.0280762 10.1739 0.0374774 10.4458 0.0749603 11.2991C0.112443 12.1492 0.250043 12.7337 0.446981 13.2401C0.650145 13.7777 0.965758 14.259 1.37209 14.6591C1.77219 15.0654 2.25666 15.3812 2.78801 15.5812C3.29751 15.7781 3.8788 15.9156 4.72906 15.9531C5.58226 15.9907 5.85428 16 8.02658 16C10.1989 16 10.4708 15.9907 11.3241 15.9531C12.1742 15.9156 12.7587 15.7781 13.265 15.5812C14.3403 15.1654 15.1904 14.3153 15.6062 13.2401C15.803 12.7306 15.9406 12.1492 15.9781 11.2991C16.0156 10.4458 16.025 10.1739 16.025 8.00156C16.025 5.82926 16.0218 5.55736 15.9843 4.70404ZM14.5435 11.2366C14.509 12.018 14.3778 12.4399 14.2684 12.7212C13.9995 13.4183 13.4463 13.9715 12.7493 14.2403C12.468 14.3497 12.043 14.481 11.2646 14.5153C10.4207 14.5529 10.1676 14.5622 8.03281 14.5622C5.89799 14.5622 5.64172 14.5529 4.80085 14.5153C4.01945 14.481 3.5975 14.3497 3.31619 14.2403C2.96932 14.1121 2.65359 13.909 2.39731 13.6433C2.13163 13.3838 1.92847 13.0713 1.80027 12.7244C1.69087 12.4431 1.55962 12.018 1.52532 11.2397C1.48771 10.3958 1.47843 10.1426 1.47843 8.00779C1.47843 5.87297 1.48771 5.6167 1.52532 4.77596C1.55962 3.99455 1.69087 3.5726 1.80027 3.29129C1.92847 2.9443 2.13163 2.62869 2.40049 2.37229C2.65981 2.10661 2.97237 1.90345 3.31937 1.77537C3.60067 1.66597 4.0258 1.53472 4.80403 1.50029C5.64794 1.46281 5.90117 1.45341 8.03586 1.45341C10.1738 1.45341 10.4269 1.46281 11.2678 1.50029C12.0492 1.53472 12.4712 1.66597 12.7525 1.77537C13.0993 1.90345 13.4151 2.10661 13.6714 2.37229C13.937 2.63174 14.1402 2.9443 14.2684 3.29129C14.3778 3.5726 14.509 3.99761 14.5435 4.77596C14.581 5.61987 14.5904 5.87297 14.5904 8.00779C14.5904 10.1426 14.581 10.3927 14.5435 11.2366Z" fill="#F4F4FD"/>
<path d="M8.02967 3.89136C5.76055 3.89136 3.91949 5.73229 3.91949 8.00153C3.91949 10.2708 5.76055 12.1117 8.02967 12.1117C10.2989 12.1117 12.1398 10.2708 12.1398 8.00153C12.1398 5.73229 10.2989 3.89136 8.02967 3.89136ZM8.02967 10.6677C6.55758 10.6677 5.3635 9.47375 5.3635 8.00153C5.3635 6.52932 6.55758 5.33536 8.02967 5.33536C9.50188 5.33536 10.6958 6.52932 10.6958 8.00153C10.6958 9.47375 9.50188 10.6677 8.02967 10.6677Z" fill="#F4F4FD"/>
<path d="M13.262 3.72889C13.262 4.25878 12.8324 4.68843 12.3024 4.68843C11.7725 4.68843 11.3428 4.25878 11.3428 3.72889C11.3428 3.19888 11.7725 2.76935 12.3024 2.76935C12.8324 2.76935 13.262 3.19888 13.262 3.72889Z" fill="#F4F4FD"/>
</g>
<defs>
<clipPath id="clip0_1021712_24">
<rect width="16" height="16" fill="white"/>
</clipPath>
</defs>
    </symbol>

    <symbol id="icon-twitter" viewBox="0 0 32 32">
<path d="M16 3.039C15.405 3.3 14.771 3.473 14.11 3.557C14.79 3.151 15.309 2.513 15.553 1.744C14.919 2.122 14.219 2.389 13.473 2.538C12.871 1.897 12.013 1.5 11.077 1.5C9.261 1.5 7.799 2.974 7.799 4.781C7.799 5.041 7.821 5.291 7.875 5.529C5.148 5.396 2.735 4.089 1.114 2.098C0.831 2.589 0.665 3.151 0.665 3.756C0.665 4.892 1.25 5.899 2.122 6.482C1.595 6.472 1.078 6.319 0.64 6.078C0.64 6.088 0.64 6.101 0.64 6.114C0.64 7.708 1.777 9.032 3.268 9.337C3.001 9.41 2.71 9.445 2.408 9.445C2.198 9.445 1.986 9.433 1.787 9.389C2.212 10.688 3.418 11.643 4.852 11.674C3.736 12.547 2.319 13.073 0.785 13.073C0.516 13.073 0.258 13.061 0 13.028C1.453 13.965 3.175 14.5 5.032 14.5C11.068 14.5 14.368 9.5 14.368 5.166C14.368 5.021 14.363 4.881 14.356 4.742C15.007 4.28 15.554 3.703 16 3.039Z" fill="#F4F4FD"/>
    </symbol>

    <symbol id="icon-facebook" viewBox="0 0 32 32">
<g clip-path="url(#clip0_1021712_46)">
<path d="M10.6647 2.65667H12.1254V0.112667C11.8734 0.078 11.0067 0 9.99736 0C7.89136 0 6.4487 1.32467 6.4487 3.75933V6H4.12469V8.844H6.4487V16H9.29803V8.84467H11.528L11.882 6.00067H9.29736V4.04133C9.29803 3.21933 9.51936 2.65667 10.6647 2.65667Z" fill="#F4F4FD"/>
</g>
<defs>
<clipPath id="clip0_1021712_46">
<rect width="16" height="16" fill="white"/>
</clipPath>
</defs>
    </symbol>

    <symbol id="icon-linkedin" viewBox="0 0 32 32">
<g clip-path="url(#clip0_1021712_53)">
<path d="M15.996 16V15.9994H16V10.1314C16 7.26071 15.382 5.04938 12.026 5.04938C10.4127 5.04938 9.33003 5.93471 8.88803 6.77404H8.84137V5.31738H5.65936V15.9994H8.9727V10.71C8.9727 9.31738 9.2367 7.97071 10.9614 7.97071C12.6607 7.97071 12.686 9.56004 12.686 10.7994V16H15.996Z" fill="#F4F4FD"/>
<path d="M0.263977 5.31799H3.58131V16H0.263977V5.31799Z" fill="#F4F4FD"/>
<path d="M1.92133 0C0.860667 0 0 0.860667 0 1.92133C0 2.982 0.860667 3.86067 1.92133 3.86067C2.982 3.86067 3.84267 2.982 3.84267 1.92133C3.842 0.860667 2.98133 0 1.92133 0V0Z" fill="#F4F4FD"/>
</g>
<defs>
<clipPath id="clip0_1021712_53">
<rect width="16" height="16" fill="white"/>
</clipPath>
</defs>
    </symbol>

</svg>